<svg width="24" height="24" viewBox="0 0 24 24" fill="none" xmlns="http://www.w3.org/2000/svg">
<path d="M17.6129 15.5161C19.0654 13.5341 19.7159 11.0768 19.4344 8.63581C19.1529 6.1948 17.9601 3.9501 16.0946 2.35078C14.2291 0.751471 11.8286 -0.0845049 9.3732 0.0101048C6.91783 0.104715 4.58872 1.12293 2.85185 2.86105C1.11497 4.59917 0.0984187 6.929 0.00556599 9.38444C-0.0872867 11.8399 0.750407 14.2398 2.35105 16.1042C3.9517 17.9685 6.19726 19.1597 8.63847 19.4395C11.0797 19.7192 13.5365 19.0669 15.5174 17.6131H15.5159C15.5609 17.6731 15.6089 17.7301 15.6629 17.7856L21.4379 23.5606C21.7192 23.8421 22.1008 24.0003 22.4987 24.0004C22.8966 24.0005 23.2782 23.8426 23.5597 23.5613C23.8412 23.2801 23.9994 22.8985 23.9995 22.5006C23.9996 22.1027 23.8417 21.7211 23.5604 21.4396L17.7854 15.6646C17.7318 15.6103 17.6741 15.5602 17.6129 15.5146V15.5161ZM17.9999 9.75009C17.9999 10.8335 17.7866 11.9063 17.3719 12.9072C16.9573 13.9082 16.3497 14.8176 15.5836 15.5837C14.8175 16.3498 13.908 16.9575 12.9071 17.3721C11.9061 17.7867 10.8333 18.0001 9.74994 18.0001C8.66654 18.0001 7.59374 17.7867 6.5928 17.3721C5.59187 16.9575 4.68239 16.3498 3.91631 15.5837C3.15023 14.8176 2.54254 13.9082 2.12794 12.9072C1.71334 11.9063 1.49994 10.8335 1.49994 9.75009C1.49994 7.56205 2.36914 5.46363 3.91631 3.91646C5.46349 2.36928 7.56191 1.50009 9.74994 1.50009C11.938 1.50009 14.0364 2.36928 15.5836 3.91646C17.1307 5.46363 17.9999 7.56205 17.9999 9.75009Z" fill="#8D8D8D"/>
</svg>
